<svg width="50" height="50" viewBox="0 0 50 50" fill="none" xmlns="http://www.w3.org/2000/svg">
<path d="M38.2275 16.4958H37.0186V15.5906C38.1397 14.4744 38.8011 12.9312 38.8011 11.3976C38.8011 8.19502 36.1553 5.58096 32.8737 5.50566C32.59 4.08203 31.8432 2.78145 30.7274 1.78867C29.4311 0.635156 27.7479 0 25.9877 0C23.5638 0 21.3328 1.21631 20.0593 3.16719C18.9794 2.30342 17.6179 1.82178 16.1992 1.82178C13.6808 1.82178 11.445 3.33076 10.5444 5.56387C10.2933 5.5332 10.0406 5.51777 9.78876 5.51777C6.44023 5.51777 3.71591 8.16162 3.71591 11.4114C3.71591 13.7545 5.14374 15.8564 7.31923 16.7953V26.08C7.31923 26.4845 7.64706 26.8124 8.05165 26.8124C8.45624 26.8124 8.78408 26.4845 8.78408 26.08V20.0505C8.89589 20.1766 9.01347 20.2988 9.1371 20.4167C9.90312 21.1467 10.8356 21.6546 11.8495 21.9107C11.6082 22.3132 11.4691 22.7836 11.4691 23.286V40.0275C11.4691 41.5084 12.6739 42.7131 14.1547 42.7131C15.6354 42.7131 16.8402 41.5084 16.8402 40.0275V23.286C16.8402 22.5864 16.5705 21.9493 16.1305 21.4711C17.0979 20.9969 17.9292 20.2733 18.5247 19.3563C18.6805 19.3697 18.836 19.3765 18.9902 19.3765C21.2731 19.3765 23.3105 17.9947 24.0522 16.0182L35.5537 16.0082V42.4316C35.5537 43.6433 34.568 44.6289 33.3564 44.6289H18.7188C18.3143 44.6289 17.9864 44.9568 17.9864 45.3613C17.9864 45.7658 18.3143 46.0938 18.7188 46.0938H33.3564C34.1802 46.0938 34.9412 45.8202 35.5537 45.3594V46.3379C35.5537 47.5495 34.568 48.5352 33.3564 48.5352H10.9813C9.76982 48.5352 8.78408 47.5495 8.78408 46.3379V45.3587C9.39658 45.8196 10.1574 46.0938 10.9813 46.0938H15.7892C16.1937 46.0938 16.5216 45.7658 16.5216 45.3613C16.5216 44.9568 16.1937 44.6289 15.7892 44.6289H10.9813C9.76982 44.6289 8.78408 43.6433 8.78408 42.4316V29.0097C8.78408 28.6052 8.45624 28.2772 8.05165 28.2772C7.64706 28.2772 7.31923 28.6052 7.31923 29.0097V46.3379C7.31923 48.3572 8.96201 50 10.9813 50H33.3564C35.3758 50 37.0186 48.3572 37.0186 46.3379V42.4336L42.1173 38.9658C44.7265 37.1913 46.2842 34.248 46.2842 31.0927V24.5524C46.2842 20.11 42.6699 16.4958 38.2275 16.4958ZM37.0186 21.8669H38.7158C39.9273 21.8669 40.9131 22.8525 40.9131 24.0642V31.141C40.9131 32.3609 40.3091 33.4963 39.2974 34.178L37.0186 35.7136V21.8669ZM15.3754 40.0275C15.3754 40.7007 14.8278 41.2482 14.1547 41.2482C13.4815 41.2482 12.934 40.7007 12.934 40.0275V23.286C12.934 22.6129 13.4815 22.0653 14.1547 22.0653C14.8278 22.0653 15.3754 22.6129 15.3754 23.286V40.0275ZM23.5106 14.5538C23.1715 14.5541 22.8769 14.7872 22.7986 15.1173C22.421 16.7103 20.7837 17.9116 18.9902 17.9116C18.7527 17.9116 18.5103 17.8897 18.2697 17.8465C17.9569 17.7901 17.6434 17.9426 17.4938 18.2231C16.7006 19.7133 15.128 20.639 13.39 20.639C10.8891 20.639 8.82275 18.6835 8.78408 16.28C8.779 15.9688 8.57812 15.6948 8.28271 15.5967C6.42734 14.98 5.18076 13.298 5.18076 11.4113C5.18076 8.96934 7.24785 6.98252 9.78876 6.98252C10.1508 6.98252 10.515 7.02432 10.8714 7.10674C11.2534 7.19521 11.6392 6.96572 11.743 6.58633C12.2742 4.64346 14.1067 3.28643 16.1993 3.28643C17.5438 3.28643 18.8186 3.85039 19.6966 4.83389C19.8612 5.01826 20.1074 5.10723 20.3519 5.07031C20.5963 5.03359 20.8057 4.87607 20.9086 4.65146C21.7968 2.71572 23.7905 1.46484 25.9877 1.46484C28.8381 1.46484 31.2661 3.60225 31.5152 6.33086C31.5514 6.72676 31.8978 7.02139 32.2936 6.99502L32.3908 6.98809C32.4901 6.98086 32.6563 6.96875 32.7283 6.96875C35.2692 6.96875 37.3363 8.95547 37.3363 11.3976C37.3363 12.5423 36.8394 13.6993 35.9956 14.5429L23.5106 14.5538ZM44.8193 31.0927C44.8193 33.7626 43.5013 36.253 41.2936 37.7546L37.0186 40.6621V37.48L40.116 35.3928C41.5323 34.4384 42.3779 32.8489 42.3779 31.141V24.0642C42.3779 22.0448 40.7352 20.4021 38.7158 20.4021H37.0186V17.9606H38.2275C41.8623 17.9606 44.8193 20.9177 44.8193 24.5524V31.0927Z" fill="black"/>
<path d="M24.8963 40.0275V23.286C24.8963 21.8052 23.6915 20.6005 22.2107 20.6005C20.73 20.6005 19.5252 21.8052 19.5252 23.286V40.0275C19.5252 41.5084 20.73 42.7131 22.2107 42.7131C23.6915 42.7131 24.8963 41.5083 24.8963 40.0275ZM20.99 40.0275V23.286C20.99 22.6129 21.5376 22.0653 22.2107 22.0653C22.8839 22.0653 23.4314 22.6129 23.4314 23.286V40.0275C23.4314 40.7007 22.8839 41.2482 22.2107 41.2482C21.5376 41.2482 20.99 40.7006 20.99 40.0275Z" fill="black"/>
<path d="M32.2199 27.4098C32.6245 27.4098 32.9523 27.0818 32.9523 26.6773V23.2859C32.9523 21.8051 31.7475 20.6004 30.2668 20.6004C28.786 20.6004 27.5812 21.8051 27.5812 23.2859V40.0274C27.5812 41.5083 28.786 42.713 30.2668 42.713C31.7475 42.713 32.9523 41.5083 32.9523 40.0274V29.607C32.9523 29.2025 32.6245 28.8746 32.2199 28.8746C31.8153 28.8746 31.4875 29.2025 31.4875 29.607V40.0275C31.4875 40.7007 30.9399 41.2482 30.2668 41.2482C29.5936 41.2482 29.0461 40.7007 29.0461 40.0275V23.286C29.0461 22.6129 29.5936 22.0653 30.2668 22.0653C30.9399 22.0653 31.4875 22.6129 31.4875 23.286V26.6774C31.4875 27.0818 31.8154 27.4098 32.2199 27.4098Z" fill="black"/>
</svg>
