<svg width="50" height="50" viewBox="0 0 512 512" fill="none" xmlns="http://www.w3.org/2000/svg">
    <path d="M470.948 244.793C469.858 240.796 465.73 238.437 461.739 239.531C459.336 240.186 457.534 241.941 456.71 244.102H416.092C410.911 218.311 402.167 194.116 390.216 172.65H416.052C428.496 187.136 438.948 203.571 446.882 221.629C448.549 225.423 452.98 227.147 456.765 225.479C460.558 223.813 462.281 219.388 460.615 215.596C433.072 152.912 377.388 108.334 312.25 94.048V74.228C312.25 61.822 302.156 51.728 289.75 51.728H274.456V7.5C274.456 3.357 271.099 0 266.956 0C262.813 0 259.456 3.357 259.456 7.5V51.728H244.16C231.754 51.728 221.66 61.822 221.66 74.228V94.04C126.771 114.833 55.525 199.53 55.525 300.569C55.525 417.152 150.371 512 266.954 512C383.537 512 478.384 417.152 478.384 300.569C478.384 281.647 475.882 262.881 470.948 244.793V244.793ZM458.974 259.103C461.887 272.669 463.384 286.568 463.384 300.57C463.384 314.794 461.852 328.665 458.966 342.038H418.676C420.627 328.524 421.627 314.651 421.627 300.57C421.627 286.49 420.627 272.617 418.676 259.103H458.974ZM415.885 428.489H390.215C402.167 407.023 410.911 382.828 416.091 357.037H455.108C447.102 383.663 433.581 407.919 415.885 428.489V428.489ZM78.797 357.037H117.819C123 382.828 131.743 407.023 143.695 428.489H118.014C100.321 407.919 86.802 383.661 78.797 357.037ZM70.525 300.569C70.525 286.345 72.058 272.475 74.944 259.102H115.231C113.276 272.623 112.283 286.466 112.283 300.569C112.283 314.649 113.283 328.523 115.234 342.037H74.942C72.056 328.664 70.525 314.793 70.525 300.569ZM118.021 172.65H143.709C142.871 174.157 142.045 175.675 141.238 177.212C139.312 180.879 140.723 185.413 144.39 187.339C148.056 189.264 152.591 187.855 154.517 184.187C156.607 180.207 158.807 176.37 161.088 172.65H213.66C208.804 194.031 205.254 218.245 203.151 244.102H133.142C135.539 232.921 138.662 222.014 142.513 211.431C143.929 207.538 141.922 203.235 138.031 201.818C134.138 200.404 129.834 202.409 128.418 206.3C123.969 218.523 120.446 231.148 117.831 244.102H78.805C86.81 217.478 100.327 193.22 118.021 172.65V172.65ZM317.471 273.195C317.631 277.334 321.103 280.533 325.257 280.397C329.396 280.236 332.62 276.751 332.459 272.611C332.282 268.073 332.062 263.568 331.799 259.102H403.485C405.537 272.475 406.627 286.345 406.627 300.569C406.627 314.793 405.536 328.663 403.485 342.037H331.8C332.5 330.077 332.901 317.831 332.984 305.405C333.011 301.262 329.675 297.883 325.534 297.855H325.483C321.364 297.855 318.011 301.18 317.984 305.305C317.901 317.783 317.492 330.064 316.777 342.036H217.129C216.325 328.552 215.91 314.676 215.91 300.568C215.91 286.461 216.326 272.585 217.129 259.101H316.772C317.052 263.757 317.286 268.456 317.471 273.195V273.195ZM127.282 300.569C127.282 286.439 128.331 272.593 130.397 259.102H202.105C201.316 272.61 200.91 286.483 200.91 300.569C200.91 314.655 201.316 328.529 202.105 342.037H130.425C128.373 328.664 127.282 314.793 127.282 300.569ZM203.152 357.037C205.255 382.894 208.805 407.108 213.661 428.489H161.047C148.468 407.92 138.865 383.658 133.174 357.037H203.152ZM217.409 443.489C217.718 444.615 218.03 445.734 218.348 446.84C223.993 466.505 230.613 481.882 238.026 492.752C212.517 485.166 189.557 467.762 171.242 443.489H217.409ZM232.998 443.489H244.425C248.568 443.489 251.925 440.132 251.925 435.989C251.925 431.846 248.568 428.489 244.425 428.489H229.056C224.034 407.334 220.364 383.083 218.198 357.037H315.708C313.538 383.109 309.863 407.368 304.851 428.489H274.425C270.282 428.489 266.925 431.846 266.925 435.989C266.925 440.132 270.282 443.489 274.425 443.489H300.911C300.84 443.732 300.772 443.98 300.701 444.222C289.285 483.136 275.783 497 266.954 497C258.022 497 244.444 482.913 232.998 443.489V443.489ZM315.095 448.445C315.572 446.819 316.037 445.161 316.497 443.489H362.668C344.352 467.763 321.389 485.169 295.877 492.754C303.088 482.179 309.552 467.34 315.095 448.445V448.445ZM320.247 428.489C325.094 407.136 328.646 382.912 330.752 357.037H400.736C395.044 383.659 385.441 407.92 372.862 428.489H320.247ZM218.198 244.103C220.365 218.057 224.034 193.806 229.056 172.651H304.85C309.819 193.639 313.51 217.958 315.696 244.103H218.198ZM217.409 157.65H171.308C189.951 133.054 213.077 116.02 237.95 108.497C230.568 119.361 223.974 134.701 218.348 154.299C218.031 155.406 217.718 156.525 217.409 157.65ZM232.998 157.65C244.443 118.226 258.022 104.139 266.954 104.139C277.383 104.139 289.173 121.197 298.49 149.768C299.321 152.317 300.126 154.951 300.91 157.65H232.998ZM312.751 145.118C307.747 129.773 302.053 117.489 295.807 108.364C321.347 115.938 344.335 133.354 362.667 157.65H316.498C315.305 153.306 314.057 149.121 312.751 145.118ZM152.887 157.65H132.348C147.151 143.701 164.11 132.017 182.67 123.164C171.748 132.883 161.712 144.507 152.887 157.65V157.65ZM152.876 443.489C154.161 445.404 155.465 447.3 156.806 449.159C164.691 460.085 173.298 469.68 182.478 477.878C163.994 469.036 147.101 457.39 132.35 443.49H152.876V443.489ZM377.103 449.159C378.445 447.3 379.748 445.404 381.033 443.489H401.556C386.815 457.378 369.93 469.012 351.461 477.851C360.63 469.659 369.226 460.073 377.103 449.159V449.159ZM400.736 244.103H330.744C328.624 218.181 325.053 193.906 320.24 172.651H372.863C385.441 193.219 395.044 217.481 400.736 244.103V244.103ZM377.103 151.98C369.212 141.045 360.602 131.437 351.414 123.235C369.849 132.017 386.833 143.628 401.722 157.65H381.034C379.748 155.736 378.444 153.839 377.103 151.98ZM236.66 74.228C236.66 70.092 240.024 66.728 244.16 66.728H289.748C293.884 66.728 297.248 70.092 297.248 74.228V91.322C287.309 89.885 277.191 89.14 266.954 89.14C256.669 89.14 246.557 89.893 236.66 91.319V74.228Z" fill="black"/>
    <path d="M46.654 98.327C50.531 99.39 56.162 100.933 58.506 101.983C59.668 105.137 61.338 113.689 62.48 119.535C66.575 140.5 68.831 152.048 78.222 152.048C87.613 152.048 89.869 140.5 93.964 119.535C95.106 113.689 96.776 105.138 97.938 101.983C100.282 100.933 105.913 99.39 109.79 98.327C124.262 94.361 134.718 91.496 134.718 82.487C134.718 73.479 124.262 70.614 109.791 66.648C105.913 65.586 100.282 64.042 97.938 62.992C96.776 59.838 95.106 51.286 93.964 45.44C89.869 24.475 87.613 12.927 78.222 12.927C68.831 12.927 66.573 24.476 62.479 45.44C61.337 51.286 59.667 59.837 58.505 62.992C56.161 64.042 50.53 65.586 46.652 66.648C32.181 70.614 21.725 73.479 21.725 82.487C21.726 91.496 32.182 94.361 46.654 98.327V98.327ZM50.617 81.115C60.82 78.318 66.29 76.714 69.416 73.588C72.666 70.337 74.057 64.414 77.2 48.316C77.503 46.766 77.848 44.999 78.221 43.147C78.593 44.999 78.939 46.766 79.242 48.316C82.386 64.415 83.776 70.337 87.026 73.587C90.152 76.714 95.622 78.318 105.825 81.115C107.267 81.51 108.988 81.981 110.755 82.487C108.988 82.994 107.268 83.466 105.824 83.861C95.622 86.657 90.152 88.261 87.026 91.387C83.776 94.638 82.385 100.561 79.242 116.659C78.939 118.209 78.594 119.976 78.221 121.828C77.849 119.976 77.503 118.209 77.2 116.659C74.056 100.56 72.666 94.638 69.416 91.388C66.29 88.261 60.82 86.657 50.618 83.861C49.175 83.465 47.454 82.994 45.687 82.487C47.454 81.981 49.175 81.51 50.617 81.115V81.115Z" fill="black"/>
    <path d="M56.416 188.202C60.559 188.202 63.916 184.845 63.916 180.702C63.916 176.559 60.559 173.202 56.416 173.202H50.321V163.481C50.321 159.338 46.964 155.981 42.821 155.981C38.678 155.981 35.321 159.338 35.321 163.481V173.202H29.225C25.082 173.202 21.725 176.559 21.725 180.702C21.725 184.845 25.082 188.202 29.225 188.202H35.321V197.923C35.321 202.066 38.678 205.423 42.821 205.423C46.964 205.423 50.321 202.066 50.321 197.923V188.202H56.416Z" fill="black"/>
    <path d="M476.656 456.369H470.512V446.588C470.512 442.445 467.155 439.088 463.012 439.088C458.869 439.088 455.512 442.445 455.512 446.588V456.369H449.368C445.225 456.369 441.868 459.726 441.868 463.869C441.868 468.012 445.225 471.369 449.368 471.369H455.512V481.15C455.512 485.293 458.869 488.65 463.012 488.65C467.155 488.65 470.512 485.293 470.512 481.15V471.369H476.656C480.799 471.369 484.156 468.012 484.156 463.869C484.156 459.726 480.799 456.369 476.656 456.369Z" fill="black"/>
    <path d="M159.225 60.507C171.911 60.507 182.231 50.186 182.231 37.5C182.231 24.814 171.911 14.493 159.225 14.493C146.539 14.493 136.218 24.814 136.218 37.5C136.218 50.186 146.539 60.507 159.225 60.507V60.507ZM159.225 29.493C163.639 29.493 167.231 33.085 167.231 37.5C167.231 41.915 163.639 45.507 159.225 45.507C154.81 45.507 151.218 41.915 151.218 37.5C151.218 33.085 154.81 29.493 159.225 29.493V29.493Z" fill="black"/>
    <path d="M482.774 419.088C486.916 419.088 490.274 415.73 490.274 411.588C490.274 407.446 486.916 404.088 482.774 404.088C478.632 404.088 475.274 407.446 475.274 411.588C475.274 415.73 478.632 419.088 482.774 419.088Z" fill="black"/>
</svg>
